<svg width="137" height="50" viewBox="0 0 137 50" fill="none" xmlns="http://www.w3.org/2000/svg">
<rect x="0.5" y="0.5" width="136" height="49" rx="4.5" fill="#0C3CD2" stroke="#0C3CD2"/>
<path d="M21.6838 36C18.1119 35.9794 15.1572 28.6879 15.1572 24.9745C15.1572 18.9087 19.7076 17.5807 21.4613 17.5807C22.2516 17.5807 23.0955 17.8911 23.8398 18.1657C24.3603 18.3573 24.8986 18.5551 25.198 18.5551C25.3772 18.5551 25.7995 18.3868 26.1724 18.2392C26.9675 17.9227 27.957 17.5292 29.1091 17.5292C29.1112 17.5292 29.114 17.5292 29.116 17.5292C29.9763 17.5292 32.5849 17.7181 34.1532 20.0732L34.5206 20.6253L33.9919 21.0242C33.2366 21.5942 31.8585 22.6337 31.8585 24.693C31.8585 27.132 33.4192 28.0699 34.169 28.5211C34.5 28.7202 34.8426 28.9255 34.8426 29.3746C34.8426 29.6678 32.5025 35.9636 29.1043 35.9636C28.2728 35.9636 27.685 35.7136 27.1666 35.4932C26.642 35.2701 26.1895 35.0778 25.4417 35.0778C25.0627 35.0778 24.5834 35.257 24.076 35.4473C23.3826 35.7061 22.5977 36 21.7071 36H21.6838Z" fill="white"/>
<path d="M29.4692 12C29.5577 15.1911 27.2756 17.4049 24.9961 17.266C24.6205 14.7195 27.2753 12 29.4692 12Z" fill="white"/>
<path d="M49.46 15.63C49.46 16.62 49.79 17.45 50.45 18.12C51.12 18.79 51.94 19.12 52.93 19.12C53.91 19.12 54.73 18.79 55.39 18.13C56.05 17.47 56.39 16.65 56.4 15.67C56.4 15.6 56.39 15.5 56.38 15.37H52.75V16.3H55.26C55.14 16.85 54.86 17.29 54.42 17.64C53.98 17.99 53.47 18.16 52.9 18.16C52.22 18.16 51.65 17.92 51.18 17.44C50.72 16.95 50.49 16.35 50.49 15.63C50.49 14.9 50.73 14.3 51.21 13.82C51.7 13.33 52.3 13.09 53.01 13.09C53.94 13.09 54.73 13.55 55.16 14.3L56.13 13.93C55.54 12.82 54.38 12.13 53.01 12.13C52 12.13 51.15 12.46 50.47 13.13C49.8 13.8 49.46 14.63 49.46 15.63ZM57.5416 12.25V19H62.4916V18.07H58.5416V16.05H61.9316V15.12H58.5416V13.18H62.4416V12.25H57.5416ZM65.5377 13.18V19H66.5377V13.18H68.9777V12.25H63.0977V13.18H65.5377ZM73.4732 19V12.25H72.4732V19H73.4732ZM76.8658 13.18V19H77.8658V13.18H80.3058V12.25H74.4258V13.18H76.8658ZM83.5713 15.63C83.5713 16.62 83.9013 17.45 84.5713 18.12C85.2413 18.79 86.0713 19.12 87.0613 19.12C88.0513 19.12 88.8813 18.79 89.5513 18.12C90.2213 17.45 90.5613 16.62 90.5613 15.63C90.5613 14.63 90.2213 13.8 89.5513 13.13C88.8813 12.46 88.0513 12.13 87.0613 12.13C86.0713 12.13 85.2413 12.46 84.5713 13.13C83.9013 13.8 83.5713 14.63 83.5713 15.63ZM84.6013 15.63C84.6013 14.9 84.8313 14.3 85.3013 13.82C85.7713 13.33 86.3613 13.09 87.0613 13.09C87.7613 13.09 88.3413 13.33 88.8113 13.82C89.2813 14.3 89.5213 14.9 89.5213 15.63C89.5213 16.35 89.2813 16.95 88.8113 17.44C88.3413 17.92 87.7613 18.16 87.0613 18.16C86.3613 18.16 85.7713 17.92 85.3013 17.44C84.8313 16.95 84.6013 16.35 84.6013 15.63ZM92.6717 19V13.98L96.6517 19H97.5317V12.25H96.5717V17.29L92.5817 12.25H91.7017V19H92.6717Z" fill="white"/>
<path d="M51.198 36L51.884 34.334H55.986L56.672 36H58.758L54.754 26.55H53.116L49.112 36H51.198ZM55.244 32.528H52.64L53.942 29.392L55.244 32.528ZM61.2091 39.15V35.566C61.7131 35.958 62.2871 36.154 62.9451 36.154C63.7991 36.154 64.4991 35.846 65.0731 35.216C65.6471 34.586 65.9411 33.788 65.9411 32.85C65.9411 31.912 65.6471 31.114 65.0731 30.484C64.4991 29.854 63.7991 29.532 62.9451 29.532C62.2871 29.532 61.7131 29.728 61.2091 30.12V29.7H59.4031V39.15H61.2091ZM62.6371 31.324C63.4211 31.324 64.0371 32.01 64.0371 32.864C64.0371 33.704 63.4211 34.362 62.6371 34.362C61.8671 34.362 61.2371 33.704 61.2371 32.864C61.2371 32.43 61.3771 32.066 61.6431 31.772C61.9231 31.478 62.2591 31.324 62.6371 31.324ZM68.6056 39.15V35.566C69.1096 35.958 69.6836 36.154 70.3416 36.154C71.1956 36.154 71.8956 35.846 72.4696 35.216C73.0436 34.586 73.3376 33.788 73.3376 32.85C73.3376 31.912 73.0436 31.114 72.4696 30.484C71.8956 29.854 71.1956 29.532 70.3416 29.532C69.6836 29.532 69.1096 29.728 68.6056 30.12V29.7H66.7996V39.15H68.6056ZM70.0336 31.324C70.8176 31.324 71.4336 32.01 71.4336 32.864C71.4336 33.704 70.8176 34.362 70.0336 34.362C69.2636 34.362 68.6336 33.704 68.6336 32.864C68.6336 32.43 68.7736 32.066 69.0396 31.772C69.3196 31.478 69.6556 31.324 70.0336 31.324ZM76.0161 36V25.85H74.1961V36H76.0161ZM83.4792 33.508C83.5212 33.326 83.5352 33.102 83.5352 32.85C83.5352 31.912 83.2132 31.114 82.5692 30.484C81.9392 29.854 81.1412 29.532 80.2032 29.532C79.2652 29.532 78.4672 29.854 77.8232 30.484C77.1932 31.114 76.8712 31.912 76.8712 32.85C76.8712 33.788 77.1932 34.586 77.8512 35.216C78.5092 35.846 79.3212 36.154 80.3012 36.154C81.6452 36.154 82.7652 35.496 83.3252 34.446L81.5752 34.04C81.2532 34.418 80.8472 34.614 80.3292 34.614C79.5872 34.614 78.9992 34.166 78.7892 33.508H83.4792ZM78.7892 32.15C78.9992 31.52 79.5872 31.086 80.2172 31.086C80.8892 31.086 81.4772 31.52 81.6872 32.15H78.7892ZM94.4118 28.58C94.2438 27.95 93.8518 27.418 93.2218 27.012C92.6058 26.592 91.8778 26.382 91.0238 26.382C90.0718 26.382 89.2878 26.648 88.6858 27.18C88.0838 27.712 87.7898 28.398 87.7898 29.252C87.7058 30.204 88.3078 30.89 88.8398 31.282C89.0078 31.408 89.2458 31.548 89.5678 31.674L90.3098 31.968L91.1358 32.22L91.5278 32.346C91.5978 32.36 91.7098 32.402 91.8918 32.472C92.0738 32.542 92.1998 32.598 92.2698 32.64C92.5078 32.78 92.8718 33.06 92.8018 33.354C92.8018 33.914 92.1298 34.32 91.2758 34.32C90.3658 34.32 89.6798 33.858 89.5258 33.284L87.5238 33.774C87.7198 34.474 88.1538 35.048 88.8258 35.496C89.5118 35.944 90.3238 36.168 91.2758 36.168C92.3118 36.168 93.1518 35.902 93.8098 35.356C94.4678 34.81 94.7898 34.082 94.7898 33.172C94.7338 32.024 94.2718 31.366 93.4878 30.96C92.9418 30.638 92.6198 30.54 92.0458 30.372C91.3318 30.162 90.8698 30.022 90.6598 29.938C90.0858 29.714 89.7918 29.434 89.7918 29.112C89.7918 28.594 90.3378 28.216 91.0518 28.216C91.7378 28.216 92.3118 28.594 92.4378 29.056L94.4118 28.58ZM95.1999 31.282H96.0679V33.998C96.0679 34.572 96.2779 35.048 96.6979 35.426C97.1319 35.804 97.6499 36 98.2659 36H99.3439V34.292H98.5599C98.1679 34.292 97.8739 34.012 97.8739 33.634V31.282H99.3439V29.7H97.8739V28.482H96.0679V29.7H95.1999V31.282ZM100.929 35.216C101.573 35.846 102.371 36.154 103.337 36.154C104.303 36.154 105.101 35.846 105.745 35.216C106.389 34.586 106.711 33.788 106.711 32.85C106.711 31.912 106.389 31.114 105.745 30.484C105.101 29.854 104.303 29.532 103.337 29.532C102.371 29.532 101.573 29.854 100.929 30.484C100.299 31.114 99.9766 31.912 99.9766 32.85C99.9766 33.788 100.299 34.586 100.929 35.216ZM103.337 34.362C102.511 34.362 101.867 33.704 101.867 32.85C101.867 31.996 102.511 31.324 103.337 31.324C104.177 31.324 104.821 31.996 104.821 32.85C104.821 33.704 104.177 34.362 103.337 34.362ZM109.403 29.7H107.583V36H109.403V32.598C109.403 31.856 109.949 31.31 110.677 31.31C110.929 31.31 111.153 31.366 111.335 31.478V29.546C111.293 29.532 111.223 29.532 111.125 29.532C110.383 29.532 109.809 29.812 109.403 30.358V29.7ZM118.315 33.508C118.357 33.326 118.371 33.102 118.371 32.85C118.371 31.912 118.049 31.114 117.405 30.484C116.775 29.854 115.977 29.532 115.039 29.532C114.101 29.532 113.303 29.854 112.659 30.484C112.029 31.114 111.707 31.912 111.707 32.85C111.707 33.788 112.029 34.586 112.687 35.216C113.345 35.846 114.157 36.154 115.137 36.154C116.481 36.154 117.601 35.496 118.161 34.446L116.411 34.04C116.089 34.418 115.683 34.614 115.165 34.614C114.423 34.614 113.835 34.166 113.625 33.508H118.315ZM113.625 32.15C113.835 31.52 114.423 31.086 115.053 31.086C115.725 31.086 116.313 31.52 116.523 32.15H113.625Z" fill="white"/>
</svg>
