<svg width="163" height="50" viewBox="0 0 163 50" fill="none" xmlns="http://www.w3.org/2000/svg">
<rect x="0.5" y="0.5" width="162" height="49" rx="4.5" stroke="white"/>
<path d="M21.6838 36C18.1119 35.9794 15.1572 28.6879 15.1572 24.9745C15.1572 18.9087 19.7076 17.5808 21.4613 17.5808C22.2516 17.5808 23.0955 17.8911 23.8398 18.1658C24.3603 18.3573 24.8986 18.5551 25.198 18.5551C25.3772 18.5551 25.7995 18.3869 26.1724 18.2393C26.9675 17.9227 27.957 17.5293 29.1091 17.5293C29.1112 17.5293 29.114 17.5293 29.116 17.5293C29.9763 17.5293 32.5849 17.7181 34.1532 20.0733L34.5206 20.6253L33.9919 21.0243C33.2366 21.5942 31.8585 22.6338 31.8585 24.6931C31.8585 27.132 33.4192 28.07 34.169 28.5211C34.5 28.7202 34.8426 28.9255 34.8426 29.3746C34.8426 29.6678 32.5025 35.9636 29.1043 35.9636C28.2728 35.9636 27.685 35.7137 27.1666 35.4933C26.642 35.2701 26.1895 35.0779 25.4417 35.0779C25.0627 35.0779 24.5834 35.2571 24.076 35.4473C23.3826 35.7061 22.5977 36 21.7071 36H21.6838Z" fill="white"/>
<path d="M29.4691 12C29.5576 15.1911 27.2755 17.4049 24.9961 17.266C24.6205 14.7195 27.2752 12 29.4691 12Z" fill="white"/>
<path d="M58.7593 15.63C58.7593 16.62 59.0893 17.45 59.7493 18.12C60.4193 18.79 61.2393 19.12 62.2293 19.12C63.2093 19.12 64.0293 18.79 64.6893 18.13C65.3493 17.47 65.6893 16.65 65.6993 15.67C65.6993 15.6 65.6893 15.5 65.6793 15.37H62.0493V16.3H64.5593C64.4393 16.85 64.1593 17.29 63.7193 17.64C63.2793 17.99 62.7693 18.16 62.1993 18.16C61.5193 18.16 60.9493 17.92 60.4793 17.44C60.0193 16.95 59.7893 16.35 59.7893 15.63C59.7893 14.9 60.0293 14.3 60.5093 13.82C60.9993 13.33 61.5993 13.09 62.3093 13.09C63.2393 13.09 64.0293 13.55 64.4593 14.3L65.4293 13.93C64.8393 12.82 63.6793 12.13 62.3093 12.13C61.2993 12.13 60.4493 12.46 59.7693 13.13C59.0993 13.8 58.7593 14.63 58.7593 15.63ZM66.8408 12.25V19H71.7908V18.07H67.8408V16.05H71.2308V15.12H67.8408V13.18H71.7408V12.25H66.8408ZM74.8369 13.18V19H75.8369V13.18H78.2769V12.25H72.3969V13.18H74.8369ZM82.7725 19V12.25H81.7725V19H82.7725ZM86.165 13.18V19H87.165V13.18H89.605V12.25H83.725V13.18H86.165ZM92.8706 15.63C92.8706 16.62 93.2006 17.45 93.8706 18.12C94.5406 18.79 95.3706 19.12 96.3606 19.12C97.3506 19.12 98.1806 18.79 98.8506 18.12C99.5206 17.45 99.8606 16.62 99.8606 15.63C99.8606 14.63 99.5206 13.8 98.8506 13.13C98.1806 12.46 97.3506 12.13 96.3606 12.13C95.3706 12.13 94.5406 12.46 93.8706 13.13C93.2006 13.8 92.8706 14.63 92.8706 15.63ZM93.9006 15.63C93.9006 14.9 94.1306 14.3 94.6006 13.82C95.0706 13.33 95.6606 13.09 96.3606 13.09C97.0606 13.09 97.6406 13.33 98.1106 13.82C98.5806 14.3 98.8206 14.9 98.8206 15.63C98.8206 16.35 98.5806 16.95 98.1106 17.44C97.6406 17.92 97.0606 18.16 96.3606 18.16C95.6606 18.16 95.0706 17.92 94.6006 17.44C94.1306 16.95 93.9006 16.35 93.9006 15.63ZM101.971 19V13.98L105.951 19H106.831V12.25H105.871V17.29L101.881 12.25H101.001V19H101.971Z" fill="white"/>
<path d="M60.4973 36L61.1833 34.334H65.2853L65.9713 36H68.0573L64.0533 26.55H62.4153L58.4113 36H60.4973ZM64.5433 32.528H61.9393L63.2413 29.392L64.5433 32.528ZM70.5083 39.15V35.566C71.0123 35.958 71.5863 36.154 72.2443 36.154C73.0983 36.154 73.7983 35.846 74.3723 35.216C74.9463 34.586 75.2403 33.788 75.2403 32.85C75.2403 31.912 74.9463 31.114 74.3723 30.484C73.7983 29.854 73.0983 29.532 72.2443 29.532C71.5863 29.532 71.0123 29.728 70.5083 30.12V29.7H68.7023V39.15H70.5083ZM71.9363 31.324C72.7203 31.324 73.3363 32.01 73.3363 32.864C73.3363 33.704 72.7203 34.362 71.9363 34.362C71.1663 34.362 70.5363 33.704 70.5363 32.864C70.5363 32.43 70.6763 32.066 70.9423 31.772C71.2223 31.478 71.5583 31.324 71.9363 31.324ZM77.9048 39.15V35.566C78.4088 35.958 78.9828 36.154 79.6408 36.154C80.4948 36.154 81.1948 35.846 81.7688 35.216C82.3428 34.586 82.6368 33.788 82.6368 32.85C82.6368 31.912 82.3428 31.114 81.7688 30.484C81.1948 29.854 80.4948 29.532 79.6408 29.532C78.9828 29.532 78.4088 29.728 77.9048 30.12V29.7H76.0988V39.15H77.9048ZM79.3328 31.324C80.1168 31.324 80.7328 32.01 80.7328 32.864C80.7328 33.704 80.1168 34.362 79.3328 34.362C78.5628 34.362 77.9328 33.704 77.9328 32.864C77.9328 32.43 78.0728 32.066 78.3388 31.772C78.6188 31.478 78.9548 31.324 79.3328 31.324ZM85.3153 36V25.85H83.4953V36H85.3153ZM92.7784 33.508C92.8204 33.326 92.8344 33.102 92.8344 32.85C92.8344 31.912 92.5124 31.114 91.8684 30.484C91.2384 29.854 90.4404 29.532 89.5024 29.532C88.5644 29.532 87.7664 29.854 87.1224 30.484C86.4924 31.114 86.1704 31.912 86.1704 32.85C86.1704 33.788 86.4924 34.586 87.1504 35.216C87.8084 35.846 88.6204 36.154 89.6004 36.154C90.9444 36.154 92.0644 35.496 92.6244 34.446L90.8744 34.04C90.5524 34.418 90.1464 34.614 89.6284 34.614C88.8864 34.614 88.2984 34.166 88.0884 33.508H92.7784ZM88.0884 32.15C88.2984 31.52 88.8864 31.086 89.5164 31.086C90.1884 31.086 90.7764 31.52 90.9864 32.15H88.0884ZM103.711 28.58C103.543 27.95 103.151 27.418 102.521 27.012C101.905 26.592 101.177 26.382 100.323 26.382C99.3711 26.382 98.5871 26.648 97.9851 27.18C97.3831 27.712 97.0891 28.398 97.0891 29.252C97.0051 30.204 97.6071 30.89 98.1391 31.282C98.3071 31.408 98.5451 31.548 98.8671 31.674L99.6091 31.968L100.435 32.22L100.827 32.346C100.897 32.36 101.009 32.402 101.191 32.472C101.373 32.542 101.499 32.598 101.569 32.64C101.807 32.78 102.171 33.06 102.101 33.354C102.101 33.914 101.429 34.32 100.575 34.32C99.6651 34.32 98.9791 33.858 98.8251 33.284L96.8231 33.774C97.0191 34.474 97.4531 35.048 98.1251 35.496C98.8111 35.944 99.6231 36.168 100.575 36.168C101.611 36.168 102.451 35.902 103.109 35.356C103.767 34.81 104.089 34.082 104.089 33.172C104.033 32.024 103.571 31.366 102.787 30.96C102.241 30.638 101.919 30.54 101.345 30.372C100.631 30.162 100.169 30.022 99.9591 29.938C99.3851 29.714 99.0911 29.434 99.0911 29.112C99.0911 28.594 99.6371 28.216 100.351 28.216C101.037 28.216 101.611 28.594 101.737 29.056L103.711 28.58ZM104.499 31.282H105.367V33.998C105.367 34.572 105.577 35.048 105.997 35.426C106.431 35.804 106.949 36 107.565 36H108.643V34.292H107.859C107.467 34.292 107.173 34.012 107.173 33.634V31.282H108.643V29.7H107.173V28.482H105.367V29.7H104.499V31.282ZM110.228 35.216C110.872 35.846 111.67 36.154 112.636 36.154C113.602 36.154 114.4 35.846 115.044 35.216C115.688 34.586 116.01 33.788 116.01 32.85C116.01 31.912 115.688 31.114 115.044 30.484C114.4 29.854 113.602 29.532 112.636 29.532C111.67 29.532 110.872 29.854 110.228 30.484C109.598 31.114 109.276 31.912 109.276 32.85C109.276 33.788 109.598 34.586 110.228 35.216ZM112.636 34.362C111.81 34.362 111.166 33.704 111.166 32.85C111.166 31.996 111.81 31.324 112.636 31.324C113.476 31.324 114.12 31.996 114.12 32.85C114.12 33.704 113.476 34.362 112.636 34.362ZM118.702 29.7H116.882V36H118.702V32.598C118.702 31.856 119.248 31.31 119.976 31.31C120.228 31.31 120.452 31.366 120.634 31.478V29.546C120.592 29.532 120.522 29.532 120.424 29.532C119.682 29.532 119.108 29.812 118.702 30.358V29.7ZM127.614 33.508C127.656 33.326 127.67 33.102 127.67 32.85C127.67 31.912 127.348 31.114 126.704 30.484C126.074 29.854 125.276 29.532 124.338 29.532C123.4 29.532 122.602 29.854 121.958 30.484C121.328 31.114 121.006 31.912 121.006 32.85C121.006 33.788 121.328 34.586 121.986 35.216C122.644 35.846 123.456 36.154 124.436 36.154C125.78 36.154 126.9 35.496 127.46 34.446L125.71 34.04C125.388 34.418 124.982 34.614 124.464 34.614C123.722 34.614 123.134 34.166 122.924 33.508H127.614ZM122.924 32.15C123.134 31.52 123.722 31.086 124.352 31.086C125.024 31.086 125.612 31.52 125.822 32.15H122.924Z" fill="white"/>
</svg>
