<svg width="24" height="24" viewBox="0 0 24 24" fill="none" xmlns="http://www.w3.org/2000/svg">
<path d="M8.68377 24C5.11185 23.9794 2.15723 16.6879 2.15723 12.9745C2.15723 6.90868 6.70762 5.58071 8.4613 5.58071C9.25162 5.58071 10.0955 5.89107 10.8398 6.16571C11.3603 6.35729 11.8986 6.55506 12.198 6.55506C12.3772 6.55506 12.7995 6.38682 13.1724 6.23921C13.9675 5.92267 14.957 5.52924 16.1091 5.52924C16.1112 5.52924 16.114 5.52924 16.116 5.52924C16.9763 5.52924 19.5849 5.71806 21.1532 8.07324L21.5206 8.62529L20.9919 9.02424C20.2366 9.59415 18.8585 10.6337 18.8585 12.693C18.8585 15.132 20.4192 16.0699 21.169 16.5211C21.5 16.7202 21.8426 16.9255 21.8426 17.3746C21.8426 17.6678 19.5025 23.9636 16.1043 23.9636C15.2728 23.9636 14.685 23.7136 14.1666 23.4932C13.642 23.2701 13.1895 23.0778 12.4417 23.0778C12.0627 23.0778 11.5834 23.257 11.076 23.4473C10.3826 23.7061 9.5977 24 8.70712 24H8.68377Z" fill="white"/>
<path d="M16.4692 0C16.5577 3.19106 14.2756 5.40488 11.9961 5.26603C11.6205 2.71945 14.2753 0 16.4692 0Z" fill="white"/>
</svg>
