<svg width="70" height="70" viewBox="0 0 70 70" fill="none" xmlns="http://www.w3.org/2000/svg">
<circle cx="35" cy="35" r="35" fill="#323EDD" fill-opacity="0.05"/>
<path d="M45.1973 40.9762C45.3346 41.1134 45.5145 41.1821 45.6945 41.1821C45.8744 41.1821 46.0543 41.1134 46.1916 40.9762L47.8003 39.3676C48.0748 39.093 48.0748 38.6478 47.8003 38.3731L46.1916 36.7644C45.9171 36.49 45.472 36.4899 45.1972 36.7644C44.9226 37.039 44.9226 37.4842 45.1972 37.7589L46.3087 38.8704L45.1972 39.9818C44.9227 40.2564 44.9227 40.7016 45.1973 40.9762Z" fill="#0C3CD2"/>
<path d="M24.8027 36.7645C24.5281 36.49 24.083 36.49 23.8083 36.7645L22.1997 38.3731C21.9251 38.6477 21.9251 39.0929 22.1997 39.3676L23.8083 40.9762C23.9456 41.1134 24.1255 41.1821 24.3055 41.1821C24.4854 41.1821 24.6653 41.1134 24.8026 40.9762C25.0772 40.7016 25.0772 40.2564 24.8026 39.9818L23.6911 38.8703L24.8026 37.7588C25.0773 37.4843 25.0773 37.039 24.8027 36.7645Z" fill="#0C3CD2"/>
<path d="M52.2969 46.1397H51.6371V25.865C51.6371 24.2852 50.3519 23 48.7721 23H21.2279C19.6481 23 18.3629 24.2852 18.3629 25.865V46.1397H17.7031C17.3148 46.1397 17 46.4546 17 46.8428V49.4729C17 51.2471 18.4433 52.6904 20.2175 52.6904H49.7825C51.5566 52.6904 53 51.2471 53 49.4729V46.8428C53 46.4545 52.6851 46.1397 52.2969 46.1397ZM21.2279 24.4062H48.7721C49.5765 24.4062 50.2309 25.0606 50.2309 25.865V27.8222H19.7691V25.865C19.7691 25.0606 20.4234 24.4062 21.2279 24.4062ZM19.7691 29.2285H50.2309V46.1397H40.0894C39.7012 46.1397 39.3863 46.4546 39.3863 46.8428C39.3863 47.2919 39.021 47.6573 38.5719 47.6573H31.4281C30.979 47.6573 30.6137 47.2919 30.6137 46.8428C30.6137 46.4546 30.2988 46.1397 29.9106 46.1397H19.7691V29.2285ZM51.5938 49.4729C51.5938 50.4717 50.7812 51.2842 49.7825 51.2842H20.2175C19.2188 51.2842 18.4062 50.4717 18.4062 49.4729V47.5459H29.3215C29.6163 48.4268 30.4493 49.0635 31.4281 49.0635H38.5719C39.5507 49.0635 40.3837 48.4268 40.6785 47.5459H51.5938V49.4729Z" fill="#0C3CD2"/>
<path d="M34.6051 26.7344H35.3949C35.7832 26.7344 36.0981 26.4195 36.0981 26.0312C36.0981 25.643 35.7832 25.3281 35.3949 25.3281H34.6051C34.2168 25.3281 33.9019 25.643 33.9019 26.0312C33.9019 26.4195 34.2167 26.7344 34.6051 26.7344Z" fill="#0C3CD2"/>
<path d="M39.4559 31.702H37.0585C37.0585 32.5123 36.4016 33.1692 35.5913 33.1692H34.4087C33.5984 33.1692 32.9415 32.5123 32.9415 31.702H30.5441C29.6203 31.702 27.8027 32.5716 27.8027 34.4434V38.556H30.6536V43.9885H39.3464V38.556H42.1973V34.4434C42.1973 32.4705 40.3797 31.702 39.4559 31.702Z" fill="#52A9DC"/>
</svg>
