<svg width="70" height="70" viewBox="0 0 70 70" fill="none" xmlns="http://www.w3.org/2000/svg">
<circle cx="35" cy="35" r="35" fill="#323EDD" fill-opacity="0.05"/>
<g clip-path="url(#clip0)">
<path d="M35 22.8104C28.2786 22.8104 22.8104 28.2786 22.8104 35C22.8104 41.7214 28.2786 47.1896 35 47.1896C41.7214 47.1896 47.1896 41.7214 47.1896 35C47.1896 28.2786 41.7214 22.8104 35 22.8104ZM35 45.7833C29.054 45.7833 24.2167 40.946 24.2167 35C24.2167 29.054 29.054 24.2167 35 24.2167C40.946 24.2167 45.7833 29.054 45.7833 35C45.7833 40.946 40.9459 45.7833 35 45.7833Z" fill="#0C3CD2"/>
<path d="M52.0393 37.4173C52.4896 36.7173 53 35.9239 53 35.0001C53 34.0763 52.4896 33.2829 52.0393 32.5829C51.7379 32.1143 51.4532 31.6718 51.3619 31.2705C51.2644 30.8425 51.3296 30.3044 51.3986 29.7348C51.5017 28.8827 51.6084 28.0016 51.2205 27.1986C50.8257 26.3815 50.0272 25.892 49.3227 25.46C48.8399 25.164 48.3839 24.8844 48.1187 24.5526C47.8507 24.2175 47.6776 23.709 47.4943 23.1708C47.2291 22.3918 46.9286 21.509 46.2233 20.9466C45.5216 20.3872 44.5955 20.2902 43.7782 20.2045C43.2095 20.145 42.6724 20.0887 42.2813 19.9003C41.9036 19.7183 41.5318 19.3395 41.1383 18.9385C40.5571 18.3464 39.8985 17.6752 39.005 17.4723C38.1449 17.2771 37.3142 17.5751 36.5109 17.8635C35.9646 18.0594 35.4486 18.2446 35 18.2446C34.5514 18.2446 34.0354 18.0594 33.4891 17.8634C32.6859 17.5751 31.8553 17.2771 30.995 17.4722C30.1015 17.675 29.4429 18.3462 28.8617 18.9385C28.4682 19.3395 28.0965 19.7182 27.7188 19.9002C27.3277 20.0886 26.7906 20.1448 26.2218 20.2044C25.4046 20.2901 24.4784 20.3871 23.7768 20.9465C23.0715 21.5089 22.7709 22.3917 22.5058 23.1706C22.3225 23.709 22.1494 24.2174 21.8814 24.5526C21.6162 24.8843 21.1601 25.1639 20.6773 25.4599C19.9729 25.8919 19.1744 26.3815 18.7796 27.1986C18.3916 28.0016 18.4983 28.8827 18.6014 29.7348C18.6704 30.3045 18.7356 30.8425 18.6381 31.2705C18.5468 31.6718 18.2621 32.1143 17.9607 32.5829C17.5104 33.2829 17 34.0763 17 35.0001C17 35.9239 17.5104 36.7173 17.9607 37.4172C18.2621 37.8859 18.5468 38.3284 18.6381 38.7297C18.7356 39.1577 18.6704 39.6957 18.6014 40.2654C18.4983 41.1175 18.3916 41.9986 18.7795 42.8015C19.1743 43.6186 19.9728 44.1083 20.6773 44.5402C21.1601 44.8362 21.6161 45.1158 21.8813 45.4475C22.1493 45.7827 22.3224 46.2912 22.5057 46.8294C22.7708 47.6084 23.0714 48.4912 23.7767 49.0536C24.4784 49.613 25.4046 49.71 26.2218 49.7957C26.7905 49.8552 27.3276 49.9115 27.7187 50.0999C28.0964 50.2819 28.4682 50.6607 28.8617 51.0616C29.4429 51.6538 30.1015 52.325 30.995 52.5279C31.8553 52.7231 32.6859 52.4251 33.4891 52.1367C34.0355 51.9407 34.5514 51.7555 35 51.7555C35.4486 51.7555 35.9646 51.9407 36.5109 52.1367C37.1348 52.3607 37.7751 52.5905 38.4331 52.5905C38.6222 52.5905 38.8129 52.5715 39.005 52.5279C39.8985 52.3251 40.5571 51.6539 41.1383 51.0617C41.5318 50.6607 41.9035 50.2819 42.2812 50.1C42.6723 49.9115 43.2095 49.8553 43.7782 49.7957C44.5954 49.7101 45.5216 49.6131 46.2232 49.0537C46.9285 48.4913 47.229 47.6085 47.4943 46.8295C47.6775 46.2912 47.8506 45.7828 48.1186 45.4476C48.3838 45.1159 48.8399 44.8363 49.3227 44.5403C50.0271 44.1083 50.8256 43.6187 51.2204 42.8016C51.6084 41.9986 51.5017 41.1175 51.3986 40.2654C51.3296 39.6957 51.2644 39.1577 51.3619 38.7297C51.4531 38.3284 51.7379 37.8859 52.0393 37.4173ZM50.8567 36.6564C50.5028 37.2066 50.1369 37.7754 49.9907 38.4175C49.839 39.0839 49.9221 39.7705 50.0025 40.4344C50.0849 41.1152 50.1628 41.7582 49.9542 42.1898C49.7388 42.6355 49.1796 42.9784 48.5875 43.3414C48.023 43.6875 47.4392 44.0455 47.0203 44.5693C46.5986 45.0966 46.3772 45.7471 46.163 46.3762C45.9403 47.0304 45.7299 47.6483 45.3465 47.954C44.9663 48.2572 44.318 48.3251 43.6316 48.397C42.9683 48.4665 42.2824 48.5383 41.6709 48.8329C41.0718 49.1215 40.5953 49.6071 40.1345 50.0766C39.6458 50.5747 39.1841 51.045 38.6937 51.1564C38.2335 51.2607 37.6274 51.0434 36.9858 50.8131C36.3503 50.585 35.6931 50.3492 34.9999 50.3492C34.3066 50.3492 33.6494 50.585 33.014 50.8131C32.3723 51.0434 31.7662 51.2608 31.3061 51.1564C30.8156 51.045 30.354 50.5747 29.8652 50.0766C29.4044 49.6071 28.9279 49.1215 28.3288 48.8329C27.7173 48.5383 27.0314 48.4666 26.3681 48.397C25.6817 48.3252 25.0334 48.2572 24.6532 47.954C24.2698 47.6483 24.0594 47.0304 23.8368 46.3762C23.6226 45.7471 23.4011 45.0966 22.9794 44.5693C22.5606 44.0455 21.9769 43.6876 21.4123 43.3414C20.8201 42.9784 20.2609 42.6355 20.0456 42.1898C19.837 41.7582 19.9149 41.1152 19.9973 40.4344C20.0777 39.7705 20.1608 39.084 20.0091 38.4175C19.8629 37.7754 19.497 37.2065 19.1431 36.6564C18.7643 36.0672 18.4062 35.5106 18.4062 35.0001C18.4062 34.4896 18.7643 33.933 19.1433 33.3437C19.4972 32.7935 19.8631 32.2247 20.0093 31.5826C20.161 30.9161 20.0779 30.2296 19.9975 29.5657C19.9151 28.8849 19.8372 28.2419 20.0458 27.8103C20.2612 27.3646 20.8204 27.0217 21.4125 26.6587C21.977 26.3126 22.5608 25.9546 22.9797 25.4308C23.4013 24.9036 23.6228 24.253 23.837 23.6239C24.0597 22.9697 24.2701 22.3518 24.6535 22.0461C25.0338 21.7429 25.682 21.675 26.3684 21.6031C27.0318 21.5336 27.7176 21.4618 28.3292 21.1672C28.9282 20.8787 29.4047 20.3931 29.8655 19.9235C30.3542 19.4255 30.8159 18.9551 31.3063 18.8438C31.7663 18.7394 32.3726 18.9568 33.0142 19.1871C33.6496 19.415 34.3067 19.6509 35 19.6509C35.6933 19.6509 36.3504 19.415 36.9859 19.187C37.6276 18.9567 38.2335 18.7393 38.6938 18.8436C39.1842 18.9549 39.6459 19.4254 40.1346 19.9234C40.5955 20.393 41.072 20.8785 41.671 21.1671C42.2825 21.4616 42.9684 21.5335 43.6318 21.603C44.3182 21.675 44.9664 21.7429 45.3467 22.046C45.7301 22.3517 45.9405 22.9696 46.1632 23.6239C46.3773 24.253 46.5988 24.9035 47.0205 25.4308C47.4393 25.9546 48.0231 26.3126 48.5877 26.6587C49.1798 27.0217 49.739 27.3646 49.9543 27.8103C50.1629 28.2419 50.0851 28.8849 50.0026 29.5657C49.9222 30.2296 49.8391 30.9162 49.9908 31.5826C50.137 32.2247 50.5029 32.7935 50.8568 33.3437C51.2357 33.933 51.5938 34.4896 51.5938 35.0001C51.5938 35.5106 51.2357 36.0672 50.8567 36.6564Z" fill="#0C3CD2"/>
<path d="M35 39.7558L30.9808 41.1849L31.098 36.9208L28.4968 33.5401L32.5884 32.3339L35 28.8152L37.4115 32.3339L41.5031 33.5401L38.9019 36.9208L39.0191 41.1849L35 39.7558Z" fill="#52A9DC"/>
</g>
<defs>
<clipPath id="clip0">
<rect width="36" height="36" fill="white" transform="translate(17 17)"/>
</clipPath>
</defs>
</svg>
