<svg xmlns="http://www.w3.org/2000/svg" viewBox="0 0 1080 1080"><defs><style>.cls-1{isolation:isolate;}.cls-2,.cls-5{fill:#1b75bc;}.cls-3{fill:#fff;}.cls-4{fill:#f1f2f2;}.cls-5,.cls-6{mix-blend-mode:multiply;}.cls-6{fill:#a7a9ac;opacity:0.54;}.cls-7{fill:#d1d3d4;}</style></defs><title>Favicon</title><g class="cls-1"><g id="Layer_1" data-name="Layer 1"><path class="cls-2" d="M885.86,75.9H194.14A118.24,118.24,0,0,0,75.9,194.14V885.86A118.24,118.24,0,0,0,194.14,1004.1H885.86A118.24,118.24,0,0,0,1004.1,885.86V194.14A118.24,118.24,0,0,0,885.86,75.9Zm-506.61,691-91.72-52.49s44.42-41,62.88-103.26c40.46,2,44.67,2.25,45,2.3.16-.18,20.18-22.2,20.18-92.58,0-70.66-17.3-92.59-17.3-92.59H351s-32.3-72.1-66.34-97.49c42.69-25.95,94.61-55.95,94.61-55.95s113.06,90.57,113.06,245.74S379.25,766.91,379.25,766.91Zm471.21,64.25L500.71,626a218.08,218.08,0,0,0,7.08-22.56l0-.12h0q2.14-8.57,3.87-17.5c.12-.63.27-1.25.39-1.88.57-3,1.09-6.08,1.59-9.15,0-.29.1-.58.15-.87.92-5.8,1.67-11.73,2.3-17.74.1-1,.23-1.95.33-2.95.2-2.16.35-4.36.52-6.54.11-1.38.24-2.73.33-4.12.1-1.62.15-3.27.24-4.9.28-5.62.46-11.29.46-17.08,0-8.83-.4-17.43-1-25.87h0a339.38,339.38,0,0,0-15.31-78.31L615,274.85l164.9,5.45L583.49,513.52l1.48.42,39.61,11.17,86.82,24.46L867.18,809.83Z"/><path class="cls-3" d="M379.25,274.85s-51.92,30-94.61,55.95c34,25.39,66.34,97.49,66.34,97.49h47.31s17.3,21.93,17.3,92.59c0,70.38-20,92.4-20.18,92.58-.33-.05-4.54-.35-45-2.3-18.46,62.3-62.88,103.26-62.88,103.26l91.72,52.49s113.06-91.14,113.06-246.32S379.25,274.85,379.25,274.85Z"/><path class="cls-4" d="M507.77,603.33l0,.12s0,0,0-.06Z"/><path class="cls-4" d="M516.91,494.72c.63,8.44,1,17,1,25.87,0-8.83-.37-17.43-1-25.86Z"/><path class="cls-4" d="M624.58,525.11l.76.21L507.8,603.39C557.43,631,867.18,809.83,867.18,809.83L711.4,549.57Z"/><path class="cls-4" d="M516.91,546.69c.11-1.38.24-2.73.33-4.12C517.15,544,517,545.31,516.91,546.69Z"/><path class="cls-4" d="M516.06,556.18c.1-1,.23-1.95.33-2.95C516.29,554.23,516.16,555.19,516.06,556.18Z"/><path class="cls-4" d="M517.48,537.67c.28-5.62.46-11.29.46-17.08C517.94,526.38,517.76,532.05,517.48,537.67Z"/><path class="cls-4" d="M511.63,585.82c.12-.63.27-1.25.39-1.88C511.9,584.57,511.75,585.19,511.63,585.82Z"/><path class="cls-4" d="M513.61,574.79c0-.29.1-.58.15-.87C513.71,574.21,513.65,574.5,513.61,574.79Z"/><polygon class="cls-4" points="507.8 603.39 583.49 513.52 584.97 513.94 583.49 513.52 507.8 603.39"/><path class="cls-3" d="M507.8,603.39l75.69-89.87L779.91,280.3,615,274.85,501.62,416.42a339.38,339.38,0,0,1,15.31,78.31c.64,8.43,1,17,1,25.86,0,5.79-.18,11.46-.46,17.08-.09,1.63-.14,3.28-.24,4.9-.09,1.39-.22,2.74-.33,4.12-.17,2.18-.32,4.38-.52,6.54-.1,1-.23,2-.33,2.95-.63,6-1.38,11.94-2.3,17.74,0,.29-.11.58-.15.87-.5,3.07-1,6.13-1.59,9.15-.12.63-.27,1.25-.39,1.88q-1.74,8.92-3.87,17.5h0Z"/><polygon class="cls-2" points="624.58 525.11 584.97 513.94 612.83 521.8 624.58 525.11"/><polygon class="cls-5" points="624.58 525.11 584.97 513.94 612.83 521.8 624.58 525.11"/><polygon class="cls-6" points="624.58 525.11 584.97 513.94 612.83 521.8 624.58 525.11"/><polygon class="cls-4" points="507.8 603.39 625.34 525.32 624.58 525.11 612.83 521.8 584.97 513.94 583.49 513.52 507.8 603.39"/><polygon class="cls-6" points="507.8 603.39 625.34 525.32 624.58 525.11 612.83 521.8 584.97 513.94 583.49 513.52 507.8 603.39"/><path class="cls-7" d="M507.79,603.45A218.08,218.08,0,0,1,500.71,626L850.46,831.16l16.72-21.33S557.43,631,507.8,603.39C507.8,603.41,507.79,603.43,507.79,603.45Z"/></g></g></svg>