<svg width="427" height="94" viewBox="0 0 427 94" fill="none" xmlns="http://www.w3.org/2000/svg">
<path d="M426.15 64.6501C422.796 67.5449 418.478 69.0757 414.05 68.9401C404.32 68.9401 398.89 63.8801 398.89 54.3501V34.7201H392.6V22.5101H398.89V12.2201L411.57 9.36011V22.5101H422.25V34.7201H411.57V50.2501C411.57 54.3501 412.57 56.8301 416.57 56.8301C418.511 56.7965 420.388 56.1253 421.91 54.9201L426.15 64.6501Z" fill="white"/>
<path d="M82.82 45.0499C82.82 30.8899 93.82 20.1699 108.35 20.1699C122.88 20.1699 133.88 30.8899 133.88 45.0499C133.88 59.2099 122.88 69.9299 108.35 69.9299C93.82 69.9299 82.82 59.2199 82.82 45.0499ZM121.4 45.0499C121.382 42.4707 120.6 39.9545 119.154 37.8193C117.707 35.684 115.659 34.0255 113.27 33.053C110.881 32.0806 108.258 31.8379 105.731 32.3556C103.204 32.8733 100.887 34.1283 99.0733 35.9619C97.2592 37.7955 96.0292 40.1255 95.5386 42.6577C95.0479 45.1899 95.3187 47.8108 96.3167 50.1892C97.3147 52.5676 98.9951 54.5971 101.146 56.0211C103.296 57.445 105.821 58.1998 108.4 58.1899C110.128 58.2232 111.845 57.905 113.447 57.2546C115.048 56.6043 116.501 55.6353 117.717 54.4066C118.932 53.1778 119.886 51.7148 120.519 50.1064C121.152 48.498 121.452 46.7777 121.4 45.0499V45.0499Z" fill="white"/>
<path d="M189 45.0499C189 59.2199 179.13 69.9299 165.9 69.9299C162.931 69.9647 159.993 69.3196 157.312 68.0439C154.63 66.7681 152.276 64.8957 150.43 62.5699V88.9999H138.3V21.2999H150.42V27.5499C152.266 25.2229 154.619 23.3489 157.301 22.0715C159.982 20.7941 162.92 20.147 165.89 20.1799C179.12 20.1699 189 30.8899 189 45.0499ZM176.52 45.0499C176.492 42.487 175.708 39.9895 174.265 37.8712C172.822 35.753 170.785 34.1085 168.41 33.1445C166.035 32.1805 163.429 31.9401 160.917 32.4533C158.406 32.9666 156.103 34.2107 154.297 36.0293C152.491 37.8478 151.263 40.1596 150.767 42.6742C150.271 45.1888 150.529 47.7939 151.509 50.1621C152.489 52.5302 154.148 54.5558 156.276 55.9842C158.404 57.4125 160.907 58.1799 163.47 58.1899C165.202 58.2287 166.923 57.9145 168.529 57.2666C170.135 56.6187 171.593 55.6506 172.813 54.4212C174.033 53.1919 174.99 51.727 175.625 50.1159C176.261 48.5047 176.562 46.7811 176.51 45.0499H176.52Z" fill="white"/>
<path d="M244.11 45.0499C244.11 59.2199 234.23 69.9299 221 69.9299C218.031 69.9625 215.094 69.3164 212.413 68.0408C209.732 66.7653 207.378 64.894 205.53 62.5699V88.9999H193.41V21.2999H205.53V27.5499C207.376 25.2227 209.73 23.3481 212.411 22.0691C215.092 20.7901 218.03 20.1405 221 20.1699C234.23 20.1699 244.11 30.8899 244.11 45.0499ZM231.62 45.0499C231.592 42.4849 230.807 39.9854 229.361 37.8661C227.916 35.7467 225.876 34.1023 223.499 33.1398C221.121 32.1772 218.512 31.9397 215.999 32.457C213.487 32.9743 211.183 34.2234 209.379 36.0469C207.575 37.8704 206.351 40.187 205.86 42.7048C205.37 45.2227 205.636 47.8293 206.624 50.1966C207.611 52.5639 209.278 54.586 211.412 56.0083C213.547 57.4307 216.055 58.1898 218.62 58.1899C220.348 58.2232 222.065 57.905 223.667 57.2546C225.268 56.6043 226.721 55.6353 227.937 54.4065C229.152 53.1777 230.106 51.7148 230.739 50.1064C231.372 48.498 231.672 46.7777 231.62 45.0499Z" fill="white"/>
<path d="M297.84 49.2499H260.1C260.747 52.1326 262.371 54.7028 264.697 56.5252C267.022 58.3476 269.906 59.3102 272.86 59.2499C278.08 59.2499 282.46 56.8299 284.33 53.5599H297.28C293.83 63.2599 284.42 69.96 272.68 69.96C258.14 69.96 247.15 59.25 247.15 45.08C247.15 30.91 258.15 20.2 272.68 20.2C287.21 20.2 298.21 30.92 298.21 45.2C298.226 46.5591 298.102 47.9163 297.84 49.2499ZM260.28 40.39H285.17C284.458 37.6264 282.841 35.1808 280.577 33.4427C278.314 31.7047 275.534 30.7744 272.68 30.7999C269.833 30.761 267.057 31.688 264.805 33.4297C262.553 35.1714 260.958 37.6249 260.28 40.39V40.39Z" fill="white"/>
<path d="M352 1.71997V68.82H339.92V62.57C338.072 64.8941 335.718 66.7653 333.037 68.0409C330.356 69.3164 327.419 69.9625 324.45 69.93C311.22 69.93 301.25 59.22 301.25 45.05C301.25 30.88 311.25 20.17 324.45 20.17C327.42 20.1393 330.357 20.7873 333.038 22.0646C335.719 23.3419 338.073 25.2146 339.92 27.5399V1.71997H352ZM339.88 45.05C339.87 42.4653 339.095 39.9414 337.653 37.7964C336.211 35.6515 334.166 33.9815 331.776 32.9969C329.386 32.0124 326.759 31.7573 324.224 32.264C321.69 32.7707 319.362 34.0164 317.534 35.844C315.706 37.6717 314.461 39.9995 313.954 42.534C313.447 45.0686 313.702 47.6964 314.687 50.0862C315.671 52.476 317.341 54.521 319.486 55.9631C321.631 57.4052 324.155 58.1801 326.74 58.19C328.48 58.238 330.213 57.9313 331.831 57.2884C333.449 56.6456 334.919 55.6801 336.152 54.4508C337.385 53.2215 338.355 51.7541 339.003 50.1379C339.651 48.5217 339.963 46.7906 339.92 45.05H339.88Z" fill="white"/>
<path d="M375.3 1.71997H388.16V68.82H375.3V1.71997Z" fill="white"/>
<path d="M16.41 0.530029C16.41 0.530029 35.3 15.6601 35.3 41.5901C35.3 67.5201 16.41 82.73 16.41 82.73L1.09 74C5.93607 69.1858 9.53949 63.2659 11.59 56.75C19.59 57.14 19.11 57.14 19.11 57.14C19.11 57.14 22.48 53.48 22.48 41.67C22.48 29.86 19.59 26.2101 19.59 26.2101H11.69C11.69 26.2101 6.28999 14.21 0.609985 9.92004C7.73999 5.54004 16.41 0.530029 16.41 0.530029Z" fill="#27AAE1"/>
<g style="mix-blend-mode:multiply">
<path d="M37.89 55.4201L57.52 42.3801L50.53 40.4001L37.89 55.4201Z" fill="#1B75BC"/>
</g>
<path d="M71.9 46.43L55.43 41.79L45.62 39L39.41 37.24C39.51 38.65 39.58 40.09 39.58 41.57C39.5794 46.2255 39.0085 50.8634 37.88 55.38L43.34 58.52L97.91 89.84L71.9 46.43Z" fill="#1B75BC"/>
<path d="M55.8 0.530029L36.85 24.18C40.0886 34.2897 40.435 45.1038 37.85 55.4001L83.3 1.40002L55.8 0.530029Z" fill="#27AAE1"/>
<g style="mix-blend-mode:multiply" opacity="0.54">
<path d="M57.52 42.3801L37.89 55.4201L50.53 40.4001L57.52 42.3801Z" fill="#1B75BC"/>
</g>
<path d="M97.92 89.9L95.13 93.4699L36.7 59.1899C37.166 57.9562 37.5633 56.6976 37.89 55.4199C46.18 59.9999 97.92 89.9 97.92 89.9Z" fill="#115B8C"/>
</svg>
