<svg width="449" height="97" viewBox="0 0 449 97" fill="none" xmlns="http://www.w3.org/2000/svg">
<path d="M16.84 0.410004C16.84 0.410004 36.18 15.91 36.18 42.41C36.18 68.91 16.84 84.56 16.84 84.56L1.15002 75.56C6.09717 70.6593 9.78539 64.6347 11.9 58C20.1 58.39 19.6 58.39 19.6 58.39C19.6 58.39 23.06 54.64 23.06 42.55C23.06 30.46 20.06 26.71 20.06 26.71H12C12 26.71 6.48002 14.38 0.650024 10.03C8.00002 5.54 16.84 0.410004 16.84 0.410004Z" fill="#27AAE1"/>
<g style="mix-blend-mode:multiply">
<path d="M38.83 56.62L58.94 43.26L51.78 41.24L38.83 56.62Z" fill="#1B75BC"/>
</g>
<path d="M73.67 47.41L56.8 42.66L46.75 39.82L40.39 38C40.5 39.44 40.57 40.91 40.57 42.42C40.5733 47.1902 39.9889 51.9427 38.83 56.57L44.43 59.79L100.32 91.87L73.67 47.41Z" fill="#1B75BC"/>
<path d="M57.17 0.410004L37.77 24.63C39.626 30.3879 40.5708 36.4004 40.57 42.45C40.5684 47.2232 39.9841 51.9784 38.83 56.61L85.39 1.32999L57.17 0.410004Z" fill="#27AAE1"/>
<g style="mix-blend-mode:multiply" opacity="0.54">
<path d="M58.94 43.26L38.83 56.62L51.78 41.24L58.94 43.26Z" fill="#1B75BC"/>
</g>
<path d="M100.32 91.94L97.46 95.59L37.62 60.49C38.0916 59.2223 38.4955 57.9305 38.83 56.62C47.32 61.35 100.32 91.94 100.32 91.94Z" fill="#115B8C"/>
<g style="mix-blend-mode:multiply" opacity="0.35">
<g style="mix-blend-mode:multiply" opacity="0.35">
<path d="M448.35 71.53C445.86 73.92 441.35 76 435.71 76C425.56 76 419.89 70.73 419.89 60.78V40.29H413.33V27.55H419.89V16.81L433.13 13.81V27.54H444.27V40.28H433.13V56.5C433.13 60.78 434.22 63.37 438.4 63.37C440.425 63.3284 442.381 62.626 443.97 61.37L448.35 71.53Z" fill="#115B8C"/>
</g>
<g style="mix-blend-mode:multiply" opacity="0.35">
<path d="M90 51.08C90 36.29 101.48 25.08 116.65 25.08C131.82 25.08 143.3 36.26 143.3 51.08C143.3 65.9 131.82 77.08 116.65 77.08C101.48 77.08 90 65.86 90 51.08ZM130.27 51.08C130.252 48.3901 129.438 45.7658 127.931 43.5378C126.424 41.3099 124.29 39.5782 121.8 38.5611C119.31 37.544 116.574 37.2871 113.938 37.8228C111.302 38.3584 108.884 39.6627 106.988 41.571C105.092 43.4793 103.804 45.9062 103.285 48.5458C102.767 51.1853 103.042 53.9192 104.076 56.4027C105.109 58.8862 106.855 61.0081 109.093 62.5007C111.33 63.9934 113.96 64.7899 116.65 64.79C118.456 64.8273 120.25 64.4974 121.924 63.8202C123.598 63.143 125.117 62.1326 126.389 60.8505C127.661 59.5684 128.659 58.0413 129.323 56.3617C129.986 54.6821 130.302 52.8852 130.25 51.08H130.27Z" fill="#115B8C"/>
</g>
<g style="mix-blend-mode:multiply" opacity="0.35">
<path d="M200.81 51.08C200.81 65.86 190.5 77.08 176.69 77.08C173.59 77.1138 170.523 76.4384 167.724 75.1056C164.925 73.7728 162.468 71.8178 160.54 69.39V96.97H147.89V26.2801H160.54V32.79C162.47 30.3652 164.928 28.4129 167.727 27.082C170.525 25.7511 173.591 25.0766 176.69 25.11C190.5 25.11 200.81 36.29 200.81 51.08ZM187.81 51.08C187.792 48.3897 186.978 45.765 185.47 43.5368C183.963 41.3087 181.829 39.577 179.338 38.5602C176.847 37.5434 174.111 37.2871 171.474 37.8236C168.838 38.36 166.42 39.6652 164.524 41.5745C162.629 43.4839 161.341 45.9118 160.824 48.552C160.307 51.1922 160.583 53.9264 161.618 56.4097C162.653 58.893 164.401 61.0141 166.64 62.5056C168.879 63.997 171.51 64.7919 174.2 64.79C176.003 64.8246 177.795 64.4926 179.466 63.8141C181.138 63.1356 182.654 62.1247 183.923 60.8427C185.192 59.5607 186.187 58.0343 186.848 56.3562C187.51 54.678 187.823 52.883 187.77 51.08H187.81Z" fill="#115B8C"/>
</g>
<g style="mix-blend-mode:multiply" opacity="0.35">
<path d="M258.33 51.08C258.33 65.86 248.02 77.08 234.21 77.08C231.11 77.113 228.044 76.4373 225.245 75.1045C222.446 73.7718 219.988 71.8172 218.06 69.39V96.9699H205.42V26.28H218.06V32.79C219.99 30.3657 222.448 28.4138 225.247 27.0829C228.046 25.752 231.111 25.0773 234.21 25.11C248 25.11 258.33 36.29 258.33 51.08ZM245.33 51.08C245.312 48.3901 244.498 45.7657 242.991 43.5378C241.484 41.3099 239.35 39.5781 236.86 38.5611C234.37 37.544 231.634 37.2871 228.998 37.8227C226.362 38.3584 223.944 39.6626 222.048 41.571C220.152 43.4793 218.864 45.9062 218.346 48.5457C217.827 51.1853 218.102 53.9192 219.136 56.4027C220.169 58.8862 221.915 61.0081 224.153 62.5007C226.39 63.9933 229.02 64.7899 231.71 64.79C233.515 64.8259 235.308 64.495 236.981 63.8172C238.654 63.1394 240.172 62.1288 241.443 60.8468C242.713 59.5649 243.71 58.0381 244.374 56.3592C245.037 54.6803 245.352 52.8843 245.3 51.08H245.33Z" fill="#115B8C"/>
</g>
<g style="mix-blend-mode:multiply" opacity="0.35">
<path d="M314.42 55.45H275C275.68 58.4566 277.379 61.1356 279.808 63.0329C282.237 64.9302 285.248 65.929 288.33 65.86C293.78 65.86 298.33 63.33 300.33 59.93H313.85C310.25 70.04 300.43 77.05 288.17 77.05C273 77.05 261.52 65.86 261.52 51.05C261.52 36.24 273 25.05 288.17 25.05C303.34 25.05 314.82 36.23 314.82 51.12C314.84 52.5734 314.705 54.0248 314.42 55.45ZM275.22 46.21H301.22C300.479 43.3318 298.797 40.7839 296.442 38.9719C294.086 37.1598 291.192 36.1876 288.22 36.21C285.239 36.1519 282.328 37.1106 279.965 38.9283C277.602 40.746 275.928 43.3142 275.22 46.21V46.21Z" fill="#115B8C"/>
</g>
<g style="mix-blend-mode:multiply" opacity="0.35">
<path d="M371 5.85001V75.85H358.34V69.33C356.414 71.757 353.958 73.7116 351.161 75.0444C348.363 76.3772 345.298 77.053 342.2 77.02C328.38 77.02 317.98 65.83 317.98 51.02C317.98 36.21 328.38 25.02 342.2 25.02C345.297 24.9874 348.361 25.6622 351.158 26.9932C353.955 28.3241 356.412 30.2759 358.34 32.7V5.85001H371ZM358.35 51.08C358.342 48.3798 357.535 45.7423 356.03 43.5004C354.524 41.2585 352.389 39.5127 349.893 38.483C347.397 37.4533 344.651 37.1859 342.003 37.7147C339.355 38.2434 336.923 39.5445 335.014 41.4539C333.105 43.3633 331.803 45.7954 331.275 48.4434C330.746 51.0913 331.013 53.8366 332.043 56.3328C333.073 58.8291 334.819 60.9644 337.06 62.4695C339.302 63.9747 341.94 64.7821 344.64 64.79C346.451 64.831 348.252 64.5044 349.933 63.8298C351.615 63.1552 353.142 62.1467 354.422 60.8652C355.703 59.5837 356.71 58.0558 357.384 56.374C358.057 54.6921 358.382 52.8912 358.34 51.08H358.35Z" fill="#115B8C"/>
</g>
<g style="mix-blend-mode:multiply" opacity="0.35">
<path d="M395.27 5.85001H408.69V75.85H395.27V5.85001Z" fill="#115B8C"/>
</g>
</g>
<path d="M445.35 66.53C442.86 68.92 438.35 71 432.71 71C422.56 71 416.89 65.73 416.89 55.78V35.29H410.33V22.55H416.89V11.81L430.13 8.81V22.54H441.27V35.28H430.13V51.5C430.13 55.78 431.22 58.37 435.4 58.37C437.425 58.3284 439.381 57.626 440.97 56.37L445.35 66.53Z" fill="#194056"/>
<path d="M87 46.08C87 31.29 98.48 20.08 113.65 20.08C128.82 20.08 140.3 31.26 140.3 46.08C140.3 60.9 128.82 72.08 113.65 72.08C98.48 72.08 87 60.86 87 46.08ZM127.27 46.08C127.252 43.3901 126.438 40.7658 124.931 38.5378C123.424 36.3099 121.29 34.5782 118.8 33.5611C116.31 32.544 113.574 32.2871 110.938 32.8228C108.302 33.3584 105.884 34.6627 103.988 36.571C102.092 38.4793 100.804 40.9062 100.285 43.5458C99.7672 46.1853 100.042 48.9192 101.076 51.4027C102.109 53.8862 103.855 56.0081 106.093 57.5007C108.33 58.9934 110.96 59.7899 113.65 59.79C115.456 59.8273 117.25 59.4974 118.924 58.8202C120.598 58.143 122.117 57.1326 123.389 55.8505C124.661 54.5684 125.659 53.0413 126.323 51.3617C126.986 49.6821 127.302 47.8852 127.25 46.08H127.27Z" fill="#194056"/>
<path d="M197.81 46.08C197.81 60.86 187.5 72.08 173.69 72.08C170.59 72.1138 167.523 71.4384 164.724 70.1056C161.925 68.7728 159.468 66.8178 157.54 64.39V91.97H144.89V21.2801H157.54V27.79C159.47 25.3652 161.928 23.4129 164.727 22.082C167.525 20.7511 170.591 20.0766 173.69 20.11C187.5 20.11 197.81 31.29 197.81 46.08ZM184.81 46.08C184.792 43.3897 183.978 40.765 182.47 38.5368C180.963 36.3087 178.829 34.577 176.338 33.5602C173.847 32.5434 171.111 32.2871 168.474 32.8236C165.838 33.36 163.42 34.6652 161.524 36.5745C159.629 38.4839 158.341 40.9118 157.824 43.552C157.307 46.1922 157.583 48.9264 158.618 51.4097C159.653 53.893 161.401 56.0141 163.64 57.5056C165.879 58.997 168.51 59.7919 171.2 59.79C173.003 59.8246 174.795 59.4926 176.466 58.8141C178.138 58.1356 179.654 57.1247 180.923 55.8427C182.192 54.5607 183.187 53.0343 183.848 51.3562C184.51 49.678 184.823 47.883 184.77 46.08H184.81Z" fill="#194056"/>
<path d="M255.33 46.08C255.33 60.86 245.02 72.08 231.21 72.08C228.11 72.113 225.044 71.4373 222.245 70.1045C219.446 68.7718 216.988 66.8172 215.06 64.39V91.9699H202.42V21.28H215.06V27.79C216.99 25.3657 219.449 23.4138 222.247 22.0829C225.046 20.752 228.111 20.0773 231.21 20.11C245 20.11 255.33 31.29 255.33 46.08ZM242.33 46.08C242.312 43.3901 241.498 40.7657 239.991 38.5378C238.484 36.3099 236.35 34.5781 233.86 33.5611C231.37 32.544 228.634 32.2871 225.998 32.8227C223.362 33.3584 220.944 34.6626 219.048 36.571C217.152 38.4793 215.864 40.9062 215.346 43.5457C214.827 46.1853 215.102 48.9192 216.136 51.4027C217.169 53.8862 218.915 56.0081 221.153 57.5007C223.39 58.9933 226.02 59.7899 228.71 59.79C230.515 59.8259 232.308 59.495 233.981 58.8172C235.654 58.1394 237.172 57.1288 238.443 55.8468C239.713 54.5649 240.711 53.0381 241.374 51.3592C242.037 49.6803 242.352 47.8843 242.3 46.08H242.33Z" fill="#194056"/>
<path d="M311.42 50.45H272C272.68 53.4566 274.379 56.1356 276.808 58.0329C279.237 59.9302 282.248 60.929 285.33 60.86C290.78 60.86 295.33 58.33 297.33 54.93H310.85C307.25 65.04 297.43 72.05 285.17 72.05C270 72.05 258.52 60.86 258.52 46.05C258.52 31.24 270 20.05 285.17 20.05C300.34 20.05 311.82 31.23 311.82 46.12C311.84 47.5734 311.706 49.0248 311.42 50.45V50.45ZM272.22 41.21H298.22C297.479 38.3318 295.797 35.7839 293.442 33.9719C291.086 32.1598 288.192 31.1876 285.22 31.21C282.239 31.1519 279.328 32.1106 276.965 33.9283C274.602 35.746 272.928 38.3142 272.22 41.21V41.21Z" fill="#194056"/>
<path d="M368 0.850006V70.85H355.34V64.33C353.414 66.757 350.958 68.7116 348.161 70.0444C345.363 71.3772 342.298 72.053 339.2 72.02C325.38 72.02 314.98 60.83 314.98 46.02C314.98 31.21 325.38 20.02 339.2 20.02C342.297 19.9874 345.361 20.6622 348.158 21.9932C350.955 23.3241 353.412 25.2759 355.34 27.7V0.850006H368ZM355.35 46.08C355.342 43.3798 354.535 40.7423 353.03 38.5004C351.524 36.2585 349.389 34.5127 346.893 33.483C344.397 32.4533 341.651 32.1859 339.003 32.7147C336.355 33.2434 333.923 34.5445 332.014 36.4539C330.105 38.3633 328.803 40.7954 328.275 43.4434C327.746 46.0913 328.013 48.8366 329.043 51.3328C330.073 53.8291 331.819 55.9644 334.06 57.4695C336.302 58.9747 338.94 59.7821 341.64 59.79C343.451 59.831 345.252 59.5044 346.933 58.8298C348.615 58.1552 350.142 57.1467 351.422 55.8652C352.703 54.5837 353.71 53.0558 354.384 51.374C355.057 49.6921 355.382 47.8912 355.34 46.08H355.35Z" fill="#194056"/>
<path d="M392.27 0.850006H405.69V70.85H392.27V0.850006Z" fill="#194056"/>
</svg>
