<svg width="24" height="24" viewBox="0 0 24 24" fill="none" xmlns="http://www.w3.org/2000/svg">
<g clip-path="url(#clip0)">
<path d="M4.66955 0.377687C4.1228 0.0243903 3.46608 -0.0823909 2.8501 0.0630153L13.675 10.888L17.1834 7.37959L4.66955 0.377687Z" fill="white"/>
<path d="M1.50645 0.942902C1.20453 1.34429 1.03076 1.83714 1.03076 2.35848V21.6409C1.03076 22.1623 1.20457 22.6551 1.50645 23.0565L12.5632 11.9997L1.50645 0.942902Z" fill="white"/>
<path d="M21.7622 9.9415L18.6091 8.17726L14.7867 11.9996L18.6093 15.8222L21.7627 14.0578C22.5182 13.6345 22.9692 12.8652 22.9692 11.9996C22.9692 11.134 22.5182 10.3648 21.7622 9.9415Z" fill="white"/>
<path d="M13.675 13.1115L2.85071 23.9358C3.02818 23.9776 3.20879 24.0001 3.3894 24.0001C3.83574 24.0001 4.28054 23.8731 4.66955 23.6218L17.1835 16.62L13.675 13.1115Z" fill="white"/>
</g>
<defs>
<clipPath id="clip0">
<rect width="24" height="24" fill="white"/>
</clipPath>
</defs>
</svg>
