<svg width="70" height="70" viewBox="0 0 70 70" fill="none" xmlns="http://www.w3.org/2000/svg">
<circle cx="35" cy="35" r="35" fill="#323EDD" fill-opacity="0.05"/>
<path d="M39.4255 23.2828H38.5903C38.2019 23.2828 37.8871 23.5976 37.8871 23.986C37.8871 24.3743 38.2019 24.6891 38.5903 24.6891H39.4255C39.8138 24.6891 40.1286 24.3743 40.1286 23.986C40.1286 23.5976 39.8138 23.2828 39.4255 23.2828Z" fill="#0C3CD2"/>
<path d="M43.2882 23.2828H42.453C42.0647 23.2828 41.7499 23.5976 41.7499 23.986C41.7499 24.3743 42.0647 24.6891 42.453 24.6891H43.2882C43.6765 24.6891 43.9913 24.3743 43.9913 23.986C43.9913 23.5976 43.6765 23.2828 43.2882 23.2828Z" fill="#0C3CD2"/>
<path d="M47.1512 23.2828H46.316C45.9277 23.2828 45.6129 23.5976 45.6129 23.986C45.6129 24.3743 45.9277 24.6891 46.316 24.6891H47.1512C47.5395 24.6891 47.8543 24.3743 47.8543 23.986C47.8543 23.5976 47.5395 23.2828 47.1512 23.2828Z" fill="#0C3CD2"/>
<path d="M31.5398 23.2828H25.5121C25.1238 23.2828 24.809 23.5976 24.809 23.986C24.809 24.3743 25.1238 24.6891 25.5121 24.6891H31.5398C31.9282 24.6891 32.243 24.3743 32.243 23.986C32.243 23.5976 31.9282 23.2828 31.5398 23.2828Z" fill="#0C3CD2"/>
<path d="M31.1133 30.8156C29.4928 30.8156 28.1744 32.1375 28.1744 33.7625V33.984H26.2996C25.9113 33.984 25.5965 34.2988 25.5965 34.6871V42.6728C25.5965 43.9939 26.6713 45.0686 27.9923 45.0686H34.2503C35.5714 45.0686 36.6461 43.9938 36.6461 42.6728V34.6871C36.6461 34.2988 36.3313 33.984 35.943 33.984H34.0521V33.7625C34.0521 32.1376 32.7338 30.8156 31.1133 30.8156ZM29.5808 33.7625C29.5808 32.913 30.2683 32.2218 31.1134 32.2218C31.9584 32.2218 32.6459 32.913 32.6459 33.7625V33.984H29.5808V33.7625ZM35.2399 35.3902V42.6728C35.2399 43.2185 34.796 43.6624 34.2503 43.6624H27.9923C27.4466 43.6624 27.0027 43.2184 27.0027 42.6728V35.3902H28.1745V36.8723C28.1745 37.2607 28.4893 37.5755 28.8776 37.5755C29.266 37.5755 29.5808 37.2607 29.5808 36.8723V35.3902H32.6459V36.8723C32.6459 37.2607 32.9607 37.5755 33.349 37.5755C33.7373 37.5755 34.0521 37.2607 34.0521 36.8723V35.3902H35.2399Z" fill="#0C3CD2"/>
<path d="M47.2898 48.1284H23.3635C22.8356 48.1284 22.4062 47.7011 22.4062 47.1759V27.972H49.4799V34.6679H50.8861V22.3587C50.8861 21.0581 49.8259 20 48.5226 20H23.3635C22.0602 19.9999 21 21.0581 21 22.3587V47.1759C21 48.4766 22.0602 49.5346 23.3635 49.5346H49.5293C48.8241 49.1921 48.027 48.7295 47.2898 48.1284ZM22.4062 22.3587C22.4062 21.8335 22.8356 21.4062 23.3635 21.4062H48.5226C49.0505 21.4062 49.4799 21.8335 49.4799 22.3587V26.5657H22.4062V22.3587Z" fill="#0C3CD2"/>
<path d="M55.1741 36.4579C53.424 36.4579 51.9145 35.4382 51.2122 33.9647H49.1539C48.4517 35.4382 46.9421 36.4579 45.192 36.4579C44.5403 36.4579 43.922 36.3163 43.3661 36.0628V43.2667C43.3661 48.5357 50.183 50.3338 50.183 50.3338C50.183 50.3338 57 48.5357 57 43.2667V36.0628C56.4441 36.3163 55.8257 36.4579 55.1741 36.4579Z" fill="#52A9DC"/>
<path d="M49.9734 44.2151C49.7881 44.2151 49.6098 44.1419 49.4779 44.0107L48.2995 42.8401C48.024 42.5664 48.0225 42.1212 48.2963 41.8457C48.5699 41.5703 49.0151 41.5688 49.2906 41.8425L49.928 42.4757L51.7928 40.2669C52.0434 39.9702 52.487 39.9327 52.7837 40.1833C53.0804 40.4338 53.1179 40.8774 52.8674 41.1741L50.5106 43.9656C50.3839 44.1157 50.2003 44.2059 50.0041 44.2145C49.9939 44.2149 49.9836 44.2151 49.9734 44.2151Z" fill="#0C3CD2"/>
</svg>
