<svg width="50" height="50" viewBox="0 0 50 50" fill="none" xmlns="http://www.w3.org/2000/svg">
<circle cx="25" cy="25" r="24.5" fill="#0039F0" fill-opacity="0.1" stroke="#0C3CD2"/>
<path d="M28.192 19.648C28.192 20.968 26.824 21.928 25.024 21.928H24.184V24.136H25.384C26.272 24.136 27.04 24.376 27.64 24.832C28.264 25.288 28.576 25.84 28.576 26.512C28.576 27.928 27.184 28.96 25.288 28.96C23.728 28.96 22.456 28.24 22.072 27.16L19.744 28C20.512 29.992 22.672 31.288 25.288 31.288C26.944 31.288 28.312 30.856 29.416 29.968C30.52 29.08 31.072 27.952 31.072 26.632C31.072 25.096 30.184 23.728 28.72 22.936C30.04 22.12 30.688 20.992 30.688 19.576C30.688 18.304 30.16 17.248 29.104 16.408C28.072 15.544 26.752 15.112 25.168 15.112C22.792 15.112 20.824 16.264 19.936 17.992L22.12 19.024C22.6 18.064 23.728 17.44 25.168 17.44C26.896 17.44 28.192 18.4 28.192 19.648Z" fill="#0C3CD2"/>
</svg>
