<svg width="50" height="50" viewBox="0 0 50 50" fill="none" xmlns="http://www.w3.org/2000/svg">
<circle cx="25" cy="25" r="24.5" fill="#0039F0" fill-opacity="0.1" stroke="#0C3CD2"/>
<path d="M28.192 19.936C28.192 20.872 27.424 22.12 25.864 23.632L20.032 29.2V31H30.856V28.672H23.776L27.4 25.24C29.632 23.056 30.688 21.496 30.688 19.84C30.688 18.52 30.16 17.416 29.128 16.504C28.096 15.568 26.8 15.112 25.288 15.112C22.864 15.112 20.752 16.528 19.792 18.808L22 19.864C22.6 18.352 23.824 17.44 25.288 17.44C26.08 17.44 26.776 17.68 27.328 18.184C27.904 18.664 28.192 19.24 28.192 19.936Z" fill="#0C3CD2"/>
</svg>
